<svg width="21" height="18" viewBox="0 0 21 18" fill="none" xmlns="http://www.w3.org/2000/svg">
<path fill-rule="evenodd" clip-rule="evenodd" d="M6.65 17.033C8.26274 17.0475 9.86222 16.7406 11.355 16.1302C12.8478 15.5197 14.2041 14.6179 15.3445 13.4775C16.4849 12.3371 17.3867 10.9808 17.9972 9.48803C18.6076 7.99522 18.9145 6.39574 18.9 4.783V4.2C19.7152 3.5793 20.4244 2.8306 21 1.983C20.2177 2.32322 19.3939 2.55859 18.55 2.683C19.4178 2.13834 20.0758 1.3161 20.417 0.350003C19.5738 0.819443 18.6709 1.17265 17.733 1.4C17.3382 0.955428 16.8529 0.600483 16.3096 0.35901C15.7662 0.117537 15.1775 -0.00487314 14.583 2.81655e-06C13.4434 0.0170382 12.3552 0.477333 11.5493 1.28326C10.7433 2.0892 10.283 3.17737 10.266 4.317C10.2396 4.63276 10.2794 4.95055 10.383 5.25C8.66633 5.16701 6.98722 4.71813 5.45815 3.93341C3.92908 3.1487 2.58535 2.04628 1.517 0.700003C1.13317 1.37573 0.932221 2.13988 0.933998 2.917C0.949486 3.62197 1.12561 4.3141 1.44897 4.94072C1.77233 5.56734 2.2344 6.11192 2.8 6.533C2.09884 6.51894 1.4142 6.31766 0.817001 5.95C0.815829 6.94923 1.16561 7.91713 1.8053 8.68475C2.44499 9.45238 3.33395 9.97097 4.317 10.15C3.93701 10.2525 3.54278 10.2921 3.15 10.267C2.87248 10.2857 2.59413 10.2458 2.333 10.15C2.61837 11.0145 3.16372 11.7698 3.89452 12.3126C4.62533 12.8555 5.50593 13.1595 6.416 13.183C4.88263 14.3809 2.99578 15.0374 1.05 15.05C0.69595 15.0689 0.341206 15.0294 0 14.933C1.93063 16.3349 4.26437 17.0719 6.65 17.033Z" fill="#F7F7F7"/>
</svg>
