<svg width="21" height="15" viewBox="0 0 21 15" fill="none" xmlns="http://www.w3.org/2000/svg">
<path fill-rule="evenodd" clip-rule="evenodd" d="M21 6.622V8.573H19.05V10.524H17.095V8.443H15.149V6.622H17.095V4.672H19.046V6.622H21ZM6.82603 6.622H13.068C13.068 7.012 13.198 7.272 13.198 7.662C13.198 11.433 10.727 14.162 6.82603 14.162C5.09193 14.125 3.44135 13.4101 2.22808 12.1706C1.01482 10.931 0.335441 9.2655 0.335571 7.53101C0.335702 5.79652 1.01533 4.13111 2.22878 2.89176C3.44224 1.65241 5.09293 0.937758 6.82703 0.901001C8.46213 0.88084 10.0433 1.48528 11.248 2.591L9.42803 4.411C9.09079 4.06638 8.68538 3.7959 8.2377 3.61682C7.79001 3.43775 7.3099 3.35403 6.82803 3.371C5.72646 3.37834 4.6721 3.81919 3.89316 4.59813C3.11421 5.37707 2.67336 6.43144 2.66603 7.533C2.6589 8.0814 2.76167 8.62568 2.96826 9.13373C3.17484 9.64179 3.48107 10.1033 3.86889 10.4911C4.2567 10.879 4.71824 11.1852 5.22629 11.3918C5.73435 11.5984 6.27862 11.7011 6.82703 11.694C7.6973 11.7654 8.56329 11.5129 9.25874 10.9848C9.95418 10.4568 10.4301 9.69048 10.595 8.833H6.82703L6.82603 6.622Z" fill="#F7F7F7"/>
</svg>
